<svg width="16" height="17" viewBox="0 0 16 17" fill="none" xmlns="http://www.w3.org/2000/svg">
<g filter="url(#filter0_d)">
<path d="M13.6498 2.35C12.1998 0.9 10.2098 0 7.99977 0C3.57977 0 0.00976562 3.58 0.00976562 8C0.00976562 12.42 3.57977 16 7.99977 16C11.7298 16 14.8398 13.45 15.7298 10H13.6498C12.8298 12.33 10.6098 14 7.99977 14C4.68977 14 1.99977 11.31 1.99977 8C1.99977 4.69 4.68977 2 7.99977 2C9.65977 2 11.1398 2.69 12.2198 3.78L8.99977 7H15.9998V0L13.6498 2.35Z" fill="white"/>
</g>
<defs>
<filter id="filter0_d" x="0.00976562" y="0" width="15.99" height="17" filterUnits="userSpaceOnUse" color-interpolation-filters="sRGB">
<feFlood flood-opacity="0" result="BackgroundImageFix"/>
<feColorMatrix in="SourceAlpha" type="matrix" values="0 0 0 0 0 0 0 0 0 0 0 0 0 0 0 0 0 0 127 0"/>
<feOffset dy="1"/>
<feColorMatrix type="matrix" values="0 0 0 0 0 0 0 0 0 0 0 0 0 0 0 0 0 0 0.1 0"/>
<feBlend mode="normal" in2="BackgroundImageFix" result="effect1_dropShadow"/>
<feBlend mode="normal" in="SourceGraphic" in2="effect1_dropShadow" result="shape"/>
</filter>
</defs>
</svg>
